<?xml version="1.0" standalone="no"?>
<!DOCTYPE svg PUBLIC "-//W3C//DTD SVG 20010904//EN"
 "http://www.w3.org/TR/2001/REC-SVG-20010904/DTD/svg10.dtd">
<svg version="1.0" xmlns="http://www.w3.org/2000/svg"
 width="256.000000pt" height="256.000000pt" viewBox="0 0 256.000000 256.000000"
 preserveAspectRatio="xMidYMid meet">
<metadata>
Created by potrace 1.14, written by Peter Selinger 2001-2017
</metadata>
<g transform="translate(0.000000,256.000000) scale(0.100000,-0.100000)"
fill="#000000" stroke="none">
<path d="M1075 2544 c-96 -18 -197 -45 -212 -57 -7 -5 -13 -7 -13 -3 0 4 -17
-2 -37 -13 -21 -10 -40 -19 -43 -19 -8 0 -84 -36 -90 -43 -3 -3 -12 -8 -21
-11 -13 -5 -66 -39 -147 -93 -67 -46 -186 -166 -259 -263 -87 -115 -217 -385
-195 -406 3 -3 0 -6 -5 -6 -6 0 -14 -19 -18 -42 -4 -24 -9 -52 -12 -63 -14
-68 -18 -126 -17 -250 0 -169 5 -205 50 -370 3 -11 6 -24 7 -30 11 -45 126
-275 138 -275 6 0 8 -4 5 -8 -6 -10 103 -151 162 -210 30 -31 95 -86 177 -151
29 -22 152 -92 191 -108 24 -10 44 -21 44 -25 0 -4 7 -5 15 -2 8 4 15 1 15 -5
0 -6 3 -10 8 -9 4 0 14 -2 22 -5 31 -13 148 -45 181 -51 19 -3 48 -9 64 -12
42 -10 319 -10 385 -1 30 4 80 14 110 23 30 8 60 16 65 18 64 16 87 26 217 90
64 32 125 65 135 74 10 10 34 28 53 42 150 106 290 277 383 467 24 48 43 90
44 93 1 13 15 57 24 76 6 11 21 72 33 135 19 94 22 141 21 269 -2 85 -5 166
-9 180 -3 14 -13 58 -21 97 -9 40 -21 75 -26 78 -5 4 -7 11 -4 16 4 5 3 15 -2
22 -4 6 -8 14 -9 17 -6 29 -91 208 -115 242 -25 35 -31 65 -14 71 17 7 46 95
44 138 -4 91 -56 174 -133 214 -68 36 -174 28 -237 -16 -25 -18 -27 -18 -60 2
-110 64 -287 141 -350 153 -13 3 -25 5 -26 7 -4 2 -14 5 -53 12 -19 4 -48 10
-65 13 -62 12 -330 11 -400 -2z m385 -158 c14 -3 41 -8 60 -11 19 -3 42 -9 50
-12 8 -3 21 -8 28 -10 6 -1 18 -5 25 -7 6 -2 23 -7 37 -12 37 -11 212 -101
236 -121 16 -13 23 -33 27 -71 6 -54 26 -112 39 -112 5 0 8 -6 8 -12 0 -16 60
-65 97 -79 15 -6 51 -13 78 -16 59 -6 64 -10 90 -60 11 -21 22 -40 25 -43 12
-12 50 -97 50 -112 0 -10 3 -18 8 -18 11 0 55 -149 70 -240 9 -49 8 -287 -1
-335 -4 -22 -9 -56 -13 -75 -3 -19 -17 -66 -30 -105 -14 -38 -26 -74 -28 -80
-5 -23 -68 -139 -103 -193 -100 -152 -253 -288 -418 -375 -64 -34 -158 -72
-200 -82 -11 -2 -40 -9 -65 -16 -25 -6 -54 -13 -65 -16 -48 -11 -285 -10 -362
2 -85 14 -221 52 -238 67 -5 4 -17 8 -27 8 -10 0 -18 5 -18 10 0 6 -9 10 -19
10 -11 0 -21 3 -23 8 -2 4 -19 15 -38 24 -38 19 -92 50 -100 58 -3 3 -23 19
-45 35 -70 52 -205 194 -205 215 0 6 -4 10 -10 10 -5 0 -30 35 -54 78 -25 42
-49 82 -53 87 -4 6 -9 17 -11 25 -2 8 -10 29 -19 47 -8 17 -15 37 -17 45 -1 7
-4 18 -7 23 -6 9 -19 54 -25 84 -1 7 -8 36 -15 65 -20 77 -17 344 4 431 9 39
19 80 22 91 3 12 11 37 19 55 8 19 14 36 13 39 -2 10 106 210 124 229 11 11
19 25 19 30 0 5 10 17 22 25 12 9 19 16 14 16 -13 0 132 140 189 182 28 21 56
42 63 48 6 6 12 8 12 5 0 -4 7 1 16 9 8 9 22 16 30 16 8 0 14 4 14 8 0 6 41
27 70 36 3 1 20 10 38 19 18 10 37 15 41 12 5 -3 11 -1 13 5 2 6 14 13 28 16
30 6 40 9 60 17 17 6 64 15 125 24 22 3 42 7 44 9 5 4 271 -4 301 -10z"/>
<path d="M1189 2076 c-2 -2 -22 -6 -45 -8 -23 -3 -46 -8 -51 -11 -5 -3 -25 -9
-43 -12 -19 -3 -40 -11 -47 -17 -7 -6 -13 -8 -13 -4 0 8 -75 -29 -112 -56 -16
-11 -28 -16 -28 -11 0 4 -4 3 -8 -2 -4 -6 -25 -24 -47 -40 -64 -48 -185 -177
-185 -198 0 -4 -8 -16 -17 -27 -10 -11 -18 -24 -19 -28 0 -4 -11 -29 -23 -57
-26 -56 -47 -121 -58 -180 -14 -69 -8 -265 9 -330 9 -33 18 -67 20 -75 6 -30
89 -183 121 -223 63 -80 180 -187 206 -187 6 0 11 -4 11 -10 0 -5 11 -12 25
-16 14 -3 25 -11 25 -17 0 -6 3 -8 6 -4 3 3 20 -2 37 -12 32 -17 117 -46 172
-56 83 -17 241 -14 325 5 109 26 100 23 139 43 19 9 38 17 43 17 5 0 18 9 30
20 12 10 24 17 29 15 4 -3 13 0 21 7 7 7 31 26 53 43 51 38 129 119 166 171
41 61 91 154 82 154 -4 0 -3 4 2 8 9 6 36 75 41 107 1 6 3 12 4 15 18 47 21
262 4 340 -8 36 -17 72 -20 80 -4 8 -8 20 -9 26 -2 6 -13 33 -25 60 -13 27
-22 52 -22 57 1 4 -3 7 -8 7 -6 0 -10 7 -10 15 0 8 -3 15 -8 15 -4 0 -16 16
-27 36 -24 45 -119 141 -188 192 -88 64 -221 122 -322 139 -34 6 -231 13 -236
9z m186 -492 c40 -12 148 -74 129 -74 -5 0 -2 -6 6 -13 19 -15 61 -73 64 -90
2 -7 7 -21 12 -32 5 -11 9 -56 8 -100 -1 -134 -61 -227 -184 -286 -43 -21 -63
-24 -140 -23 -91 1 -154 27 -216 90 -65 67 -88 124 -88 224 -1 75 2 92 28 139
25 48 96 132 96 114 0 -4 6 1 13 10 34 46 182 68 272 41z"/>
</g>
</svg>
